<?xml version="1.0" encoding="iso-8859-1"?>
<!-- Uploaded to: SVG Repo, www.svgrepo.com, Generator: SVG Repo Mixer Tools -->
<svg fill="#000000" height="800px" width="800px" version="1.1" id="Layer_1" xmlns="http://www.w3.org/2000/svg" xmlns:xlink="http://www.w3.org/1999/xlink" 
	 viewBox="0 0 512 512" xml:space="preserve">
<g>
	<g>
		<path d="M421.812,73.383H181.003c-46.005-44.228-98.297-46.952-100.54-47.047c-2.83-0.122-5.52,1.188-7.172,3.481
			c-1.654,2.293-2.042,5.263-1.036,7.905l13.584,35.661H27.449c-4.641,0-8.403,3.762-8.403,8.403c0,4.64,3.762,8.403,8.403,8.403
			h394.363c4.641,0,8.403-3.762,8.403-8.403C430.214,77.145,426.452,73.383,421.812,73.383z M103.822,73.383L93.033,45.062
			c14.303,2.944,38.234,10.271,62.128,28.321H103.822z"/>
	</g>
</g>
<g>
	<g>
		<path d="M361.677,377.362c-19.876,0-36.047,16.171-36.047,36.047c0,19.876,16.171,36.047,36.047,36.047
			c19.876,0,36.047-16.171,36.047-36.047C397.724,393.533,381.553,377.362,361.677,377.362z M361.677,432.651
			c-10.61,0-19.242-8.632-19.242-19.242c0-10.61,8.632-19.242,19.242-19.242c10.61,0,19.242,8.632,19.242,19.242
			C380.919,424.019,372.287,432.651,361.677,432.651z"/>
	</g>
</g>
<g>
	<g>
		<path d="M503.597,259.361h-32.972v-42.876c0-60.108-48.902-109.01-109.01-109.01H140.604c-4.641,0-8.403,3.762-8.403,8.403
			s3.762,8.403,8.403,8.403h221.011c24.118,0,46.092,9.319,62.541,24.531h-33.59c-0.016,0-0.032,0-0.048,0H107.371
			c-27.081,0-49.113,22.033-49.113,49.113c0,27.08,22.032,49.113,49.113,49.113h298.71c0.012,0,0.025,0.001,0.037,0.001
			c0.011,0,0.023-0.001,0.035-0.001h47.669v38.196c-1.079-1.334-2.189-2.647-3.363-3.914
			c-14.272-15.379-34.484-24.198-55.456-24.198H127.16c-4.641,0-8.403,3.762-8.403,8.403c0,4.641,3.762,8.403,8.403,8.403h267.842
			c16.312,0,32.034,6.861,43.133,18.821c4.271,4.606,7.72,9.804,10.294,15.388c-0.636-0.06-1.278-0.1-1.93-0.1
			c-13.529,0-24.127,13.178-24.127,30s10.597,30,24.127,30c2.563,0,5.021-0.475,7.322-1.357v38.329h-20.385
			c-4.179-35.899-34.757-63.86-71.758-63.86s-67.58,27.961-71.758,63.86H180.609c-1.602-13.594-7.043-26.579-15.741-37.242
			c-1.595-1.956-3.986-3.091-6.511-3.091H59.351c-2.524,0-4.915,1.135-6.511,3.091c-8.698,10.664-14.139,23.648-15.741,37.242
			h-6.927V273.926h68.98c4.641,0,8.403-3.762,8.403-8.403c0-4.64-3.762-8.403-8.403-8.403h-68.98v-99.902
			c0-18.162,14.776-32.938,32.938-32.938h49.486c4.64,0,8.403-3.762,8.403-8.403s-3.762-8.403-8.403-8.403H63.109
			c-27.428,0-49.744,22.315-49.744,49.744v247.788H8.403c-4.641,0-8.403,3.762-8.403,8.403s3.762,8.403,8.403,8.403h28.693
			c4.179,35.899,34.757,63.86,71.758,63.86c37.002,0,67.579-27.961,71.758-63.86h109.288c0.909,7.903,3.102,15.534,6.568,22.772
			c2.004,4.186,7.021,5.955,11.208,3.949c4.186-2.004,5.954-7.022,3.949-11.207c-3.577-7.47-5.394-15.494-5.405-23.847
			c0-0.023,0.003-0.047,0.003-0.071c0-0.025-0.003-0.048-0.003-0.072c0.039-30.546,24.901-55.386,55.455-55.386
			c30.579,0,55.457,24.878,55.457,55.457s-24.879,55.457-55.457,55.457c-12.491,0-24.281-4.052-34.099-11.718
			c-3.658-2.857-8.938-2.206-11.794,1.451c-2.856,3.658-2.207,8.938,1.451,11.794c12.8,9.996,28.168,15.278,44.442,15.278
			c37.002,0,67.58-27.961,71.758-63.86h47.756c4.641,0,8.403-3.762,8.403-8.403s-3.762-8.403-8.403-8.403h-10.565v-24.648h32.972
			c4.641,0,8.403-3.762,8.403-8.403V267.764C512,263.123,508.238,259.361,503.597,259.361z M213.614,230.232h-60.872v-26.328
			c0-4.641-3.762-8.403-8.403-8.403s-8.403,3.762-8.403,8.403v26.328h-28.566c-17.815,0-32.307-14.493-32.307-32.308
			c0-17.815,14.493-32.307,32.307-32.307h28.566v10.278c0,4.641,3.762,8.403,8.403,8.403s8.403-3.762,8.403-8.403v-10.278h60.872
			V230.232z M291.291,230.232h-60.872v-64.615h60.872V230.232z M308.096,230.232v-64.615h75.407l12.447,64.615H308.096z
			 M453.82,230.232h-40.755v0l-12.447-64.615h37.85c9.69,14.591,15.352,32.078,15.352,50.868V230.232z M108.854,394.167
			c10.61,0,19.242,8.632,19.242,19.242c0,10.61-8.632,19.242-19.242,19.242c-10.61,0-19.242-8.632-19.242-19.242
			C89.612,402.799,98.245,394.167,108.854,394.167z M164.311,413.424c-0.007,30.572-24.882,55.443-55.456,55.443
			c-30.579,0-55.457-24.878-55.457-55.457c0-11.432,3.571-22.629,10.12-31.93h28.637c-11.488,6.033-19.347,18.078-19.347,31.93
			c0,19.876,16.171,36.047,36.047,36.047c19.876,0,36.047-16.171,36.047-36.047c0-13.852-7.858-25.897-19.347-31.93h28.637
			c6.547,9.297,10.117,20.487,10.119,31.914c0,0.006-0.001,0.01-0.001,0.016C164.309,413.414,164.311,413.419,164.311,413.424z
			 M446.499,351.23c-3.386,0-7.321-5.764-7.321-13.194s3.936-13.194,7.321-13.194c3.386,0,7.322,5.764,7.322,13.194
			S449.884,351.23,446.499,351.23z M495.195,363.554h-24.569v-87.387h24.569V363.554z"/>
	</g>
</g>
</svg>